HIERARCHY
ROOT Hips
{
  OFFSET 61.4559 95.5407 7.05222
  CHANNELS 6 Xposition Yposition Zposition Zrotation Xrotation Yrotation
  JOINT spine
  {
    OFFSET 0 7.96568 0.458067
    CHANNELS 3 Zrotation Xrotation Yrotation
    JOINT spine1
    {
      OFFSET 0 10.2431 0
      CHANNELS 3 Zrotation Xrotation Yrotation
      JOINT spine2
      {
        OFFSET 0 9.81475 0
        CHANNELS 3 Zrotation Xrotation Yrotation
        JOINT Neck
        {
          OFFSET 0 25.1986 1.20138
          CHANNELS 3 Zrotation Xrotation Yrotation
          JOINT Head
          {
            OFFSET 0 7.61315 0
            CHANNELS 3 Zrotation Xrotation Yrotation
            End Site
            {
              OFFSET 0 18.4281 -6.07733
            }
          }
        }
        JOINT RightShoulder
        {
          OFFSET -4.1327 10.5992 -0.575451
          CHANNELS 3 Zrotation Xrotation Yrotation
          JOINT RightArm
          {
            OFFSET 0 13.9018 0
            CHANNELS 3 Zrotation Xrotation Yrotation
            JOINT RightArmRoll
            {
              OFFSET 0 7.01789 0
              CHANNELS 3 Zrotation Xrotation Yrotation
              JOINT RightForeArm
              {
                OFFSET 0 20.4406 0
                CHANNELS 3 Zrotation Xrotation Yrotation
                JOINT RightForeArmRoll
                {
                  OFFSET 0 7.87515 0
                  CHANNELS 3 Zrotation Xrotation Yrotation
                  JOINT RightHand
                  {
                    OFFSET 0 15.8037 0
                    CHANNELS 3 Zrotation Xrotation Yrotation
                    End Site
                    {
                      OFFSET 0 0 0
                    }
                  }
                }
              }
            }
          }
        }
        JOINT LeftShoulder
        {
          OFFSET 4.1327 10.5992 -0.575451
          CHANNELS 3 Zrotation Xrotation Yrotation
          JOINT LeftArm
          {
            OFFSET 0 13.9018 0
            CHANNELS 3 Zrotation Xrotation Yrotation
            JOINT LeftArmRoll
            {
              OFFSET 0 7.01788 0
              CHANNELS 3 Zrotation Xrotation Yrotation
              JOINT LeftForeArm
              {
                OFFSET 0 20.4406 0
                CHANNELS 3 Zrotation Xrotation Yrotation
                JOINT LeftForeArmRoll
                {
                  OFFSET 0 7.87516 0
                  CHANNELS 3 Zrotation Xrotation Yrotation
                  JOINT LeftHand
                  {
                    OFFSET 0 15.8037 0
                    CHANNELS 3 Zrotation Xrotation Yrotation
                    End Site
                    {
                      OFFSET 0 0 0
                    }
                  }
                }
              }
            }
          }
        }
      }
    }
  }
  JOINT RightUpLeg
  {
    OFFSET -7.06048 -1.2947 -1.08609
    CHANNELS 3 Zrotation Xrotation Yrotation
    JOINT RightUpLegRoll
    {
      OFFSET 0 18.5308 0
      CHANNELS 3 Zrotation Xrotation Yrotation
      JOINT RightLeg
      {
        OFFSET 0 -22.9476 0
        CHANNELS 3 Zrotation Xrotation Yrotation
        JOINT RightLegRoll
        {
          OFFSET 0 23.0226 0
          CHANNELS 3 Zrotation Xrotation Yrotation
          JOINT RightFoot
          {
            OFFSET 0 19.1625 0
            CHANNELS 3 Zrotation Xrotation Yrotation
            JOINT RightToeBase
            {
              OFFSET 0 16.0188 0
              CHANNELS 3 Zrotation Xrotation Yrotation
              End Site
              {
                OFFSET 0.00678979 7.75782 -0.894206
              }
            }
          }
        }
      }
    }
  }
  JOINT LeftUpLeg
  {
    OFFSET 7.06048 -1.2947 -1.08609
    CHANNELS 3 Zrotation Xrotation Yrotation
    JOINT LeftUpLegRoll
    {
      OFFSET 0 18.5309 0
      CHANNELS 3 Zrotation Xrotation Yrotation
      JOINT LeftLeg
      {
        OFFSET 0 22.9475 0
        CHANNELS 3 Zrotation Xrotation Yrotation
        JOINT LeftLegRoll
        {
          OFFSET 0 23.2355 0
          CHANNELS 3 Zrotation Xrotation Yrotation
          JOINT LeftFoot
          {
            OFFSET 0 18.9496 0
            CHANNELS 3 Zrotation Xrotation Yrotation
            JOINT LeftToeBase
            {
              OFFSET 0 16.0188 0
              CHANNELS 3 Zrotation Xrotation Yrotation
              End Site
              {
                OFFSET -0.0304289 7.75782 -0.894206
              }
            }
          }
        }
      }
    }
  }
}
MOTION
Frames: 7
Frame Time: 0.00208333
65.533 95.1712 7.55154 3.72539 0.894863 80.3504 -0.558256 0.414358 0.792865 -1.13671 4.82272 1.6627 -1.15875 6.46733 1.68398 -41.7371 -23.8088 -7.33419 35.5706 25.5659 -9.53041 31.096 2.6984 6.82888 177.249 68.6085 -64.3732 -1.11319e-014 -2.14687e-014 1.59028e-014 -5.29341 19.3535 -0.63331 -7.91662e-006 7.06534e-006 -3 8.03033 -4.95117 0.697674 -76.6859 -23.0523 12.0097 -87.4182 17.001 9.60911 8.04035e-006 -1.82511e-006 8.81494e-006 -20.3246 58.5585 14.946 4.29577e-006 1.54105e-005 3.00001 -8.02975 -4.9511 -0.697574 -179.292 -12.0127 3.08048 180 7.01461e-015 178.599 178.756 8.27588 179.709 3.27169e-006 -1.13522e-006 0.350034 -25.0999 72.421 24.4157 8.70227 33.0493 -3.76808 -177.704 13.4839 3.17847 4.54188e-006 -4.6773e-006 -0.983375 1.48684 -16.672 0.730283 -1.36435e-006 -1.14054e-006 -0.233599 19.0144 68.3889 -19.8882 -8.12735 25.2331 3.48384 
65.5547 95.1988 7.52112 3.75087 0.921524 80.3708 -0.554564 0.418709 0.78893 -1.12988 4.83142 1.65433 -1.15182 6.47604 1.6755 -41.7201 -23.6888 -7.23358 35.5105 25.4844 -9.44257 31.3916 2.86601 6.92583 176.126 68.3656 -63.4787 -4.77083e-015 -3.57812e-014 1.90833e-014 -4.8581 19.5994 -0.721785 -7.91662e-006 7.06534e-006 -3 8.03033 -4.95117 0.697674 -76.6178 -23.155 12.0653 -87.4983 16.9784 9.70128 8.04035e-006 -1.82511e-006 8.81494e-006 -20.3579 58.3308 14.8898 4.29577e-006 1.54105e-005 3.00001 -8.02975 -4.9511 -0.697574 -179.326 -12.0219 3.10831 180 7.01461e-015 178.598 178.743 8.30731 179.711 3.27169e-006 -1.13522e-006 0.352092 -25.1428 72.4492 24.4556 8.70127 33.0381 -3.76744 -177.732 13.4435 3.1883 4.54188e-006 -4.6773e-006 -0.98344 1.47194 -16.6326 0.726872 -1.36435e-006 -1.14054e-006 -0.234768 19.0264 68.4029 -19.901 -8.12735 25.2331 3.48384 
65.5477 95.2018 7.52576 3.77623 0.948763 80.393 -0.551004 0.422988 0.785124 -1.12332 4.84 1.64626 -1.14514 6.48462 1.66731 -41.6981 -23.5685 -7.13139 35.4387 25.4044 -9.35258 31.6777 3.03056 7.02094 175.03 68.118 -62.6138 -3.18055e-015 1.82882e-014 -1.27222e-014 -4.42159 19.8225 -0.811695 -7.91662e-006 7.06534e-006 -3 8.03033 -4.95117 0.697674 -76.5503 -23.2536 12.1192 -87.5759 16.9584 9.79185 8.04035e-006 -1.82511e-006 8.81494e-006 -20.3918 58.1001 14.8331 4.29577e-006 1.54105e-005 3.00001 -8.02975 -4.9511 -0.697574 -179.36 -12.0315 3.13629 180 7.01461e-015 178.597 178.73 8.33841 179.713 3.27169e-006 -1.13522e-006 0.354154 -25.1866 72.4777 24.4962 8.70025 33.0268 -3.76679 -177.762 13.4041 3.19976 4.54188e-006 -4.6773e-006 -0.983493 1.45784 -16.5936 0.723567 -1.36435e-006 -1.14054e-006 -0.235887 19.0377 68.416 -19.9131 -8.12735 25.2331 3.48384 
65.5466 95.1691 7.52938 3.80121 0.976353 80.4171 -0.547494 0.427163 0.781482 -1.11682 4.84839 1.63854 -1.13855 6.49301 1.65948 -41.6717 -23.4481 -7.02798 35.3557 25.3261 -9.26079 31.9532 3.1911 7.11372 173.968 67.864 -61.7821 -4.77083e-015 -1.51076e-014 1.90833e-014 -3.98599 20.0202 -0.901895 -7.91662e-006 7.06534e-006 -3 8.03033 -4.95117 0.697674 -76.4839 -23.3479 12.1711 -87.6509 16.9401 9.8807 8.04035e-006 -1.82511e-006 8.81494e-006 -20.4265 57.8674 14.7762 4.29577e-006 1.54105e-005 3.00001 -8.02975 -4.9511 -0.697574 -179.394 -12.0417 3.164 180 7.0146e-015 178.596 178.716 8.36849 179.715 3.27169e-006 -1.13522e-006 0.356191 -25.2306 72.5061 24.5368 8.69924 33.0155 -3.76613 -177.792 13.3659 3.21284 4.54188e-006 -4.6773e-006 -0.98353 1.44477 -16.5555 0.720418 -1.36435e-006 -1.14054e-006 -0.236941 19.0482 68.4283 -19.9244 -8.12735 25.2331 3.48384 
65.5082 95.1726 7.52566 3.82558 1.00406 80.4433 -0.543954 0.431203 0.778042 -1.11022 4.85654 1.63125 -1.13185 6.50117 1.65208 -41.6416 -23.3279 -6.92371 35.2621 25.2493 -9.16753 32.2175 3.34668 7.20368 172.947 67.6014 -60.9871 -6.36111e-015 -7.95139e-015 6.36111e-015 -3.55342 20.1897 -0.991226 -7.91662e-006 7.06534e-006 -3 8.03033 -4.95117 0.697674 -76.419 -23.4373 12.2207 -87.723 16.9228 9.96768 8.04035e-006 -1.82511e-006 8.81494e-006 -20.462 57.6342 14.7196 4.29577e-006 1.54105e-005 3.00001 -8.02975 -4.9511 -0.697574 -179.427 -12.0525 3.19099 180 7.0146e-015 178.595 178.703 8.39687 179.716 3.27169e-006 -1.13522e-006 0.358172 -25.2743 72.5339 24.5769 8.69825 33.0043 -3.76547 -177.824 13.3295 3.2275 4.54188e-006 -4.6773e-006 -0.983547 1.43296 -16.5185 0.71748 -1.36435e-006 -1.14054e-006 -0.237912 19.058 68.4397 -19.9348 -8.12735 25.2331 3.48384 
65.5187 95.1707 7.51453 3.84909 1.03167 80.4715 -0.540303 0.435075 0.774838 -1.10335 4.8644 1.62445 -1.12488 6.50904 1.64515 -41.6081 -23.2079 -6.81892 35.1583 25.1742 -9.07316 32.4695 3.49636 7.29033 171.974 67.3286 -60.2324 -4.77083e-015 -3.10104e-014 -3.18055e-015 -3.12607 20.3286 -1.07852 -7.91662e-006 7.06534e-006 -3 8.03033 -4.95117 0.697674 -76.356 -23.5214 12.2677 -87.7919 16.9057 10.0527 8.04035e-006 -1.82511e-006 8.81494e-006 -20.4986 57.4014 14.6637 4.29577e-006 1.54105e-005 3.00001 -8.02975 -4.9511 -0.697574 -179.459 -12.0642 3.21685 180 7.0146e-015 178.594 178.691 8.4229 179.718 3.27169e-006 -1.13522e-006 0.360068 -25.3172 72.5609 24.6159 8.6973 32.9933 -3.76483 -177.857 13.2951 3.2437 4.54188e-006 -4.6773e-006 -0.983541 1.42266 -16.4827 0.714804 -1.36435e-006 -1.14054e-006 -0.238786 19.067 68.4502 -19.9444 -8.12735 25.2331 3.48384 
65.5354 95.1671 7.5231 3.8715 1.05893 80.5018 -0.53646 0.438748 0.771905 -1.09601 4.87192 1.6182 -1.11747 6.51655 1.63878 -41.5721 -23.0885 -6.71397 35.0449 25.1007 -8.978 32.7086 3.63922 7.37318 171.055 67.0436 -59.5217 -6.36111e-015 7.95139e-016 6.36111e-015 -2.70611 20.4341 -1.16259 -7.91662e-006 7.06534e-006 -3 8.03033 -4.95117 0.697674 -76.2954 -23.5997 12.3119 -87.8573 16.8879 10.1355 8.04035e-006 -1.82511e-006 8.81494e-006 -20.5362 57.1705 14.6089 4.29577e-006 1.54105e-005 3.00001 -8.02975 -4.9511 -0.697574 -179.489 -12.0769 3.24115 180 7.0146e-015 178.594 178.68 8.44588 179.72 3.27169e-006 -1.13522e-006 0.361848 -25.3588 72.5864 24.6531 8.6964 32.9827 -3.7642 -177.89 13.263 3.26142 4.54188e-006 -4.6773e-006 -0.983505 1.4141 -16.4485 0.712443 -1.36435e-006 -1.14054e-006 -0.239545 19.0751 68.4597 -19.9531 -8.12735 25.2331 3.48384 
